<?xml version="1.0" encoding="UTF-8" standalone="no"?><!-- Generator: Gravit.io --><svg xmlns="http://www.w3.org/2000/svg" xmlns:xlink="http://www.w3.org/1999/xlink" style="isolation:isolate" viewBox="829 299 256 298" width="256pt" height="298pt"><defs><clipPath id="_clipPath_CD7iu1y4AWxt8zVGBQEgSzda6LkNTOtA"><rect x="829" y="299" width="256" height="298"/></clipPath></defs><g clip-path="url(#_clipPath_CD7iu1y4AWxt8zVGBQEgSzda6LkNTOtA)"><g><path d=" M 957 597 L 937 567 L 917 537 L 957 537 L 997 537 L 977 567 L 957 597 Z " fill="rgb(55,121,30)"/><path d=" M 829 427 C 829 356.355 886.355 299 957 299 C 1027.645 299 1085 356.355 1085 427 C 1085 497.645 1027.645 555 957 555 C 886.355 555 829 497.645 829 427 Z " fill="rgb(55,121,30)"/><path d=" M 847 427 C 847 366.289 896.289 317 957 317 C 1017.711 317 1067 366.289 1067 427 C 1067 487.711 1017.711 537 957 537 C 896.289 537 847 487.711 847 427 Z " fill="rgb(251,213,229)"/><path d=" M 895.108 477.79 C 894.721 474.459 892.636 471.567 889.598 470.149 C 889.598 470.149 907.271 470.289 905.187 449.401 C 905.187 449.401 906.045 441.801 945.902 442.206 C 949.264 442.242 959.163 458.306 960.364 463.622 C 961.565 468.938 962.532 473.211 962.532 473.211 L 992.923 471.147 C 991.881 464.712 986.151 462.985 982.791 460.84 C 982.956 440.414 984.963 420.618 995.291 419.483 C 1003.342 418.6 1010.221 415.873 1013.434 413.311 C 1016.647 410.749 1038.611 408.825 1040.27 406.775 C 1041.957 404.726 1047.204 398.79 1045.726 396.53 C 1044.276 394.253 1033.163 392.43 1033.163 392.43 C 1033.163 392.43 1031.529 389.746 1030.377 388.09 C 1029.226 386.454 1018.648 383.947 1018.648 383.947 C 1018.648 383.947 1015.819 378.114 1013.878 375.874 C 1011.937 373.634 1007.256 380.407 1007.256 380.407 C 1007.256 380.407 988.217 381.724 981.935 380.415 C 973.371 378.625 970.817 374.384 959.092 375.079 C 949.977 375.626 949.158 381.325 941.015 382.21 C 932.815 383.12 916.795 378.964 895.745 383.542 C 874.665 388.127 868.861 409.39 868.071 416.555 C 867.258 423.698 875.638 439.755 877.232 446.937 C 878.821 454.094 873.532 459.922 872.673 463.711 C 871.835 467.472 877.788 478.969 877.788 478.969 C 877.788 478.969 895.311 479.29 895.108 477.79 Z " fill-rule="evenodd" fill="rgb(0,0,0)"/></g></g></svg>