<?xml version="1.0" encoding="UTF-8" standalone="no"?><!-- Generator: Gravit.io --><svg xmlns="http://www.w3.org/2000/svg" xmlns:xlink="http://www.w3.org/1999/xlink" style="isolation:isolate" viewBox="418 -309 256 298" width="256pt" height="298pt"><defs><clipPath id="_clipPath_5culvh0QFF6GryZubciJdgxsGCjzXygO"><rect x="418" y="-309" width="256" height="298"/></clipPath></defs><g clip-path="url(#_clipPath_5culvh0QFF6GryZubciJdgxsGCjzXygO)"><g><path d=" M 546 -11 L 526 -41 L 506 -71 L 546 -71 L 586 -71 L 566 -41 L 546 -11 Z " fill="rgb(55,121,30)"/><path d=" M 418 -181 C 418 -251.645 475.355 -309 546 -309 C 616.645 -309 674 -251.645 674 -181 C 674 -110.355 616.645 -53 546 -53 C 475.355 -53 418 -110.355 418 -181 Z " fill="rgb(55,121,30)"/><path d=" M 436 -181 C 436 -241.711 485.289 -291 546 -291 C 606.711 -291 656 -241.711 656 -181 C 656 -120.289 606.711 -71 546 -71 C 485.289 -71 436 -120.289 436 -181 Z " fill="rgb(0,240,51)"/><path d=" M 484.383 -242.443 C 484.229 -241.982 484.129 -241.143 484.167 -240.594 C 484.298 -238.465 484.324 -238.576 483.616 -237.608 C 482.821 -236.521 482.549 -235.521 482.786 -234.591 C 482.966 -233.808 482.778 -233.476 481.8 -232.993 C 481.421 -232.801 480.759 -232.372 480.329 -232.035 C 479.603 -231.445 479.579 -231.411 479.632 -231.033 C 479.77 -229.967 481.019 -230.019 482.226 -231.117 C 483.236 -232.046 483.463 -231.854 483.168 -230.323 C 483.022 -229.622 482.951 -229.022 483.011 -228.978 C 483.118 -228.9 483.588 -229.391 484.888 -230.942 C 486.002 -232.265 486.481 -232.644 486.965 -232.577 C 487.436 -232.519 489.955 -231.172 491.248 -230.304 L 492.133 -229.709 L 492.03 -228.012 C 491.976 -227.086 492.035 -225.636 492.128 -224.785 C 492.362 -223.024 492.152 -222.134 491.106 -220.554 C 489.823 -218.624 489.238 -218.401 484.3 -217.972 C 481.837 -217.767 480.045 -217.148 478.143 -215.803 C 476.855 -214.894 476.329 -214.653 474.503 -214.112 C 473.346 -213.785 472.089 -213.297 471.709 -213.028 C 471.022 -212.565 469.27 -210.823 467.86 -209.196 C 467.142 -208.365 466.909 -208.197 465.811 -207.775 C 464.237 -207.153 463.694 -206.612 463.034 -204.983 C 462.78 -204.335 462.441 -203.67 462.281 -203.527 C 461.469 -202.818 459.373 -200.153 458.549 -198.801 C 456.563 -195.509 456.493 -193.709 458.303 -192.62 C 459.357 -192.005 461.677 -191.689 463.921 -191.847 C 465.098 -191.95 465.436 -191.886 466.227 -191.437 C 467.474 -190.733 468.143 -190.844 469.532 -191.966 L 470.589 -192.809 L 473.157 -192.833 C 475.956 -192.845 476.881 -193.081 478.184 -194.161 C 478.603 -194.506 479.426 -195.155 479.991 -195.602 C 480.569 -196.04 482.13 -197.322 483.483 -198.418 C 484.836 -199.54 486.433 -200.77 487.046 -201.156 C 489.043 -202.406 491.097 -203.458 491.423 -203.402 C 491.58 -203.366 491.934 -202.872 492.19 -202.268 C 492.645 -201.309 492.823 -201.101 494.257 -200.026 C 495.787 -198.907 495.858 -198.829 495.787 -198.281 C 495.745 -197.972 495.642 -197.605 495.542 -197.469 C 495.282 -197.112 494.276 -196.466 493.447 -196.135 C 492.36 -195.678 491.791 -195 490.785 -192.972 C 490.295 -192.001 489.903 -191.14 489.901 -191.037 C 489.873 -190.823 492.785 -192.37 493.51 -192.96 C 493.78 -193.179 494.25 -193.696 494.573 -194.137 C 495.406 -195.275 496.311 -195.786 496.825 -195.41 C 497.172 -195.156 497.213 -194.735 497.139 -192.051 L 497.059 -188.956 L 497.79 -189.203 C 498.923 -189.573 499.181 -190.427 498.949 -192.97 C 498.855 -193.82 498.868 -193.863 499.764 -195.163 C 500.598 -196.403 500.747 -196.556 502.256 -197.641 C 504.699 -199.4 504.743 -199.811 502.798 -202.746 C 502.232 -203.629 501.69 -204.443 501.608 -204.581 C 501.325 -205.048 501.915 -205.477 503.068 -205.598 C 505.932 -205.902 513.323 -205.369 515.854 -204.665 C 516.481 -204.493 517.647 -204.005 518.451 -203.574 C 521.547 -201.961 525.232 -200.802 527.111 -200.862 C 528.262 -200.906 528.95 -200.768 530.032 -200.315 C 530.982 -199.933 532.018 -198.941 531.89 -198.591 C 531.839 -198.446 531.165 -198 530.382 -197.557 C 528.754 -196.662 523.737 -193.215 522.837 -192.361 C 521.987 -191.575 521.557 -190.561 521.471 -189.189 C 521.383 -187.664 521.624 -186.914 522.913 -184.537 C 524.12 -182.35 524.406 -181.411 524.043 -180.79 C 523.756 -180.297 523.454 -180.361 522.511 -181.129 L 521.783 -181.714 L 520.636 -181.275 C 519.343 -180.762 518.959 -180.312 519.225 -179.597 C 519.432 -179.002 520.575 -178.557 522.172 -178.458 C 523.636 -178.377 524.405 -178.049 524.252 -177.614 C 524.074 -177.17 523.573 -176.885 521.498 -176.031 C 519.484 -175.184 519.003 -174.753 518.467 -173.243 C 518.314 -172.833 518.062 -172.313 517.888 -172.076 C 517.715 -171.838 517.6 -171.556 517.623 -171.462 C 517.678 -171.186 520.334 -171.329 521.454 -171.657 C 522.234 -171.895 522.504 -172.088 523.688 -173.255 C 525.058 -174.626 525.743 -175.037 526.114 -174.765 C 526.604 -174.407 526.358 -171.537 525.721 -169.839 C 525.277 -168.704 525.205 -167.453 525.545 -166.839 C 525.686 -166.554 525.745 -165.833 525.684 -165.147 C 525.534 -163.537 525.869 -163.318 526.774 -164.454 C 527.505 -165.353 528.348 -167.109 528.611 -168.246 C 528.716 -168.665 528.835 -169.881 528.866 -170.927 C 528.941 -173.036 529.097 -173.6 529.966 -174.789 C 530.724 -175.825 531.654 -176.344 532.794 -176.396 C 533.497 -176.404 533.858 -176.27 535.079 -175.507 C 537.319 -174.128 539.362 -173.886 539.673 -175.013 C 539.725 -175.21 539.377 -176.064 538.814 -177.05 C 537.758 -178.917 537.854 -178.873 535.804 -178.704 C 535.343 -178.677 534.666 -178.729 534.279 -178.803 L 533.592 -178.967 L 533.594 -180.425 C 533.59 -182.175 533.404 -183.276 532.611 -185.628 C 532.289 -186.594 532.1 -187.488 532.199 -187.624 C 532.41 -187.913 534.956 -188.684 537.169 -189.124 C 538.08 -189.292 539.128 -189.62 539.52 -189.855 C 539.912 -190.09 540.386 -190.212 540.615 -190.148 C 540.832 -190.068 542.002 -189.108 543.192 -187.977 C 549.635 -181.934 550.483 -181.236 553.515 -179.486 C 563.525 -173.754 575.286 -171.042 592.103 -170.549 C 601.183 -170.294 606.464 -169.636 611.234 -168.155 C 614.113 -167.274 616.178 -166.233 618.556 -164.492 C 624.737 -159.971 628.345 -153.942 629.206 -146.665 C 629.603 -143.194 629.388 -140.04 628.027 -130.53 C 626.677 -120.933 626.484 -117.633 627.282 -117.545 C 627.692 -117.479 628.193 -118.364 628.608 -119.859 C 629.761 -123.969 630.493 -126.275 631.512 -128.997 C 634.198 -136.13 634.982 -139.911 635 -145.555 C 635.005 -150.452 634.296 -154.751 632.72 -159.345 C 630.914 -164.603 628.926 -167.204 624.085 -170.745 C 617.33 -175.635 608.736 -178.611 592.27 -181.689 C 589.65 -182.172 586.862 -182.726 586.09 -182.899 C 585.306 -183.082 583.822 -183.411 582.772 -183.632 C 579.465 -184.304 573.963 -186.165 572.792 -187.022 C 572.457 -187.267 571.881 -187.558 571.508 -187.675 C 570.423 -187.999 566.732 -190.856 565.331 -192.402 C 564.453 -193.383 563.403 -194.282 561.55 -195.637 C 558.992 -197.508 558.968 -197.526 557.992 -199.101 C 556.85 -200.952 556.737 -201.374 557.288 -201.675 C 558.755 -202.453 560.766 -203.771 562.865 -205.312 C 566.095 -207.694 566.07 -207.686 567.083 -206.736 C 567.524 -206.336 568.436 -205.225 569.133 -204.272 C 570.054 -202.972 570.685 -202.329 571.617 -201.621 C 573.027 -200.563 573.808 -200.252 576.596 -199.673 C 577.971 -199.37 579.295 -198.897 580.977 -198.136 C 582.298 -197.509 583.693 -196.957 584.08 -196.909 C 585.264 -196.721 587.318 -197.773 587.003 -198.421 C 586.956 -198.533 586.511 -198.676 586.027 -198.743 C 585.23 -198.857 585.122 -198.91 584.913 -199.428 C 584.786 -199.73 584.431 -200.224 584.122 -200.528 C 583.634 -201.041 583.43 -201.113 582.4 -201.11 C 581.104 -201.119 580.771 -201.467 580.984 -202.511 C 581.251 -203.854 583.44 -204.964 587.025 -205.6 C 587.9 -205.768 588.849 -206.012 589.131 -206.171 C 589.412 -206.33 590.298 -207.064 591.099 -207.808 C 591.911 -208.542 592.736 -209.269 592.932 -209.386 C 593.472 -209.747 593.406 -210.134 592.836 -210.082 C 592.581 -210.06 592.086 -210.161 591.762 -210.32 C 591.426 -210.462 590.943 -210.58 590.664 -210.576 C 590.071 -210.567 587.939 -209.885 585.389 -208.908 C 583.108 -208.022 582.782 -208.104 582.905 -209.526 C 583.015 -210.906 583.576 -212.45 584.93 -214.979 C 586.322 -217.558 586.44 -218.02 585.686 -217.893 C 585.419 -217.854 584.873 -217.785 584.448 -217.73 C 583.707 -217.621 583.682 -217.613 582.887 -216.526 C 582.378 -215.829 581.852 -214.885 581.422 -213.896 C 580.676 -212.173 579.792 -210.839 579.541 -211.023 C 579.445 -211.093 579.323 -211.729 579.239 -212.442 C 579.063 -214.057 578.674 -215.307 578.232 -215.63 C 577.873 -215.892 577.423 -215.779 576.638 -215.258 C 575.976 -214.804 575.778 -213.906 575.991 -212.342 C 576.088 -211.646 576.076 -211.003 575.977 -210.918 C 575.657 -210.631 574.283 -211.688 573.504 -212.805 C 570.766 -216.764 570.193 -217.235 568.003 -217.326 C 564.553 -217.451 560.741 -216.355 554.887 -213.52 C 553.58 -212.887 552.358 -212.321 552.163 -212.28 C 551.92 -212.224 551.477 -212.496 550.414 -213.351 C 549.293 -214.302 548.652 -215.031 547.022 -217.319 C 544.4 -220.958 543.818 -221.592 541.26 -223.464 C 538.367 -225.58 535.795 -226.705 532.066 -227.478 C 526.262 -228.7 520.139 -228.408 514.462 -226.643 C 512.343 -225.978 511.09 -225.721 510.024 -225.693 C 509.212 -225.662 507.684 -225.606 506.654 -225.577 C 502.037 -225.436 501.734 -225.449 501.1 -225.912 C 500.025 -226.699 499.882 -228.159 500.526 -231.624 C 501.01 -234.242 500.851 -235.48 499.868 -236.72 C 498.755 -238.108 496.845 -238.332 492.482 -237.561 C 489.578 -237.053 489.13 -237.067 488.826 -237.655 C 488.499 -238.311 488.955 -239.437 490.448 -241.604 C 491.904 -243.694 492.291 -244.349 492.148 -244.454 C 492.1 -244.489 491.491 -244.334 490.809 -244.129 C 489.359 -243.652 488.964 -243.237 488.191 -241.352 C 487.95 -240.747 487.66 -240.15 487.597 -240.04 C 487.299 -239.632 486.982 -240.151 486.915 -241.164 C 486.753 -243.551 486.31 -244.527 485.541 -244.151 C 485.027 -243.901 484.728 -243.442 484.383 -242.443 Z " fill="rgb(0,0,0)"/></g></g></svg>